<svg xmlns="http://www.w3.org/2000/svg" viewBox="0 0 720 220" width="720" height="220" role="img" aria-label="Response time over time">
<style>
  :root { color-scheme: light dark; }
  .bg { fill: #ffffff; }
  .grid { stroke: #e5e7eb; stroke-width: 1; }
  .axis { fill: #6b7280; font-size: 10px; }
  .title { fill: #111827; font-size: 13px; font-weight: 600; }
  .sub { fill: #6b7280; font-size: 10px; }
  .line { stroke: #6366f1; stroke-width: 2; fill: none; stroke-linejoin: round; stroke-linecap: round; }
  .area { fill: url(#fade); }
  .dot-degraded { fill: #f59e0b; }
  .dot-down { fill: #ef4444; }
  .empty { fill: #9ca3af; font-size: 12px; }
  @media (prefers-color-scheme: dark) {
    .bg { fill: #0b0f19; }
    .grid { stroke: #1f2937; }
    .axis, .sub { fill: #9ca3af; }
    .title { fill: #f3f4f6; }
    .line { stroke: #818cf8; }
  }
</style>
<defs>
  <linearGradient id="fade" x1="0" y1="0" x2="0" y2="1">
    <stop offset="0%" stop-color="#6366f1" stop-opacity="0.28" />
    <stop offset="100%" stop-color="#6366f1" stop-opacity="0" />
  </linearGradient>
</defs>
<rect class="bg" width="720" height="220" rx="8" />
<text class="title" x="48" y="18">CampaignHQ — response time</text><text class="sub" x="704" y="18" text-anchor="end">mean 193 ms · peak 330 ms · 41 samples</text><line class="grid" x1="48" y1="194.0" x2="704" y2="194.0" /><text class="axis" x="42" y="197" text-anchor="end">0</text><line class="grid" x1="48" y1="152.5" x2="704" y2="152.5" /><text class="axis" x="42" y="155.5" text-anchor="end">750</text><line class="grid" x1="48" y1="111.0" x2="704" y2="111.0" /><text class="axis" x="42" y="114" text-anchor="end">1500</text><line class="grid" x1="48" y1="69.5" x2="704" y2="69.5" /><text class="axis" x="42" y="72.5" text-anchor="end">2250</text><line class="grid" x1="48" y1="28.0" x2="704" y2="28.0" /><text class="axis" x="42" y="31" text-anchor="end">3000</text><line class="grid" stroke-dasharray="4 4" x1="48" y1="55.7" x2="704" y2="55.7" /><path class="area" d="M48.0,185.5 L48.0,185.5 L64.2,183.7 L93.7,183.3 L125.7,184.8 L155.5,182.7 L182.1,184.1 L202.0,184.7 L225.6,184.4 L235.5,183.9 L254.2,183.0 L270.6,180.8 L281.8,185.8 L292.2,180.6 L310.8,182.7 L330.8,184.1 L353.1,179.7 L366.6,184.8 L383.0,182.7 L394.6,182.5 L405.2,180.7 L421.6,178.9 L438.5,183.2 L451.0,181.8 L461.7,185.9 L478.0,184.2 L494.9,184.4 L507.1,175.7 L518.0,182.7 L534.5,186.4 L551.3,184.2 L563.4,179.7 L574.0,184.5 L591.0,185.3 L606.3,184.4 L617.1,185.2 L629.5,184.0 L647.6,183.7 L663.5,184.0 L674.4,185.8 L686.2,183.3 L704.0,183.8 L704.0,194.0 L48.0,194.0 Z" /><path class="line" d="M48.0,185.5 L64.2,183.7 L93.7,183.3 L125.7,184.8 L155.5,182.7 L182.1,184.1 L202.0,184.7 L225.6,184.4 L235.5,183.9 L254.2,183.0 L270.6,180.8 L281.8,185.8 L292.2,180.6 L310.8,182.7 L330.8,184.1 L353.1,179.7 L366.6,184.8 L383.0,182.7 L394.6,182.5 L405.2,180.7 L421.6,178.9 L438.5,183.2 L451.0,181.8 L461.7,185.9 L478.0,184.2 L494.9,184.4 L507.1,175.7 L518.0,182.7 L534.5,186.4 L551.3,184.2 L563.4,179.7 L574.0,184.5 L591.0,185.3 L606.3,184.4 L617.1,185.2 L629.5,184.0 L647.6,183.7 L663.5,184.0 L674.4,185.8 L686.2,183.3 L704.0,183.8" /><text class="axis" x="48" y="212">08/26</text><text class="axis" x="704" y="212" text-anchor="end">09/07</text><text class="axis" x="42" y="20" text-anchor="end">ms</text>
</svg>
