<svg xmlns="http://www.w3.org/2000/svg" viewBox="0 0 720 220" width="720" height="220" role="img" aria-label="Response time over time">
<style>
  :root { color-scheme: light dark; }
  .bg { fill: #ffffff; }
  .grid { stroke: #e5e7eb; stroke-width: 1; }
  .axis { fill: #6b7280; font-size: 10px; }
  .title { fill: #111827; font-size: 13px; font-weight: 600; }
  .sub { fill: #6b7280; font-size: 10px; }
  .line { stroke: #6366f1; stroke-width: 2; fill: none; stroke-linejoin: round; stroke-linecap: round; }
  .area { fill: url(#fade); }
  .dot-degraded { fill: #f59e0b; }
  .dot-down { fill: #ef4444; }
  .empty { fill: #9ca3af; font-size: 12px; }
  @media (prefers-color-scheme: dark) {
    .bg { fill: #0b0f19; }
    .grid { stroke: #1f2937; }
    .axis, .sub { fill: #9ca3af; }
    .title { fill: #f3f4f6; }
    .line { stroke: #818cf8; }
  }
</style>
<defs>
  <linearGradient id="fade" x1="0" y1="0" x2="0" y2="1">
    <stop offset="0%" stop-color="#6366f1" stop-opacity="0.28" />
    <stop offset="100%" stop-color="#6366f1" stop-opacity="0" />
  </linearGradient>
</defs>
<rect class="bg" width="720" height="220" rx="8" />
<text class="title" x="48" y="18">Cece Beauty — response time</text><text class="sub" x="704" y="18" text-anchor="end">mean 110 ms · peak 5018 ms · 77 samples</text><line class="grid" x1="48" y1="194.0" x2="704" y2="194.0" /><text class="axis" x="42" y="197" text-anchor="end">0</text><line class="grid" x1="48" y1="152.5" x2="704" y2="152.5" /><text class="axis" x="42" y="155.5" text-anchor="end">1875</text><line class="grid" x1="48" y1="111.0" x2="704" y2="111.0" /><text class="axis" x="42" y="114" text-anchor="end">3750</text><line class="grid" x1="48" y1="69.5" x2="704" y2="69.5" /><text class="axis" x="42" y="72.5" text-anchor="end">5625</text><line class="grid" x1="48" y1="28.0" x2="704" y2="28.0" /><text class="axis" x="42" y="31" text-anchor="end">7500</text><line class="grid" stroke-dasharray="4 4" x1="48" y1="138.7" x2="704" y2="138.7" /><path class="area" d="M48.0,193.3 L48.0,193.3 L57.4,193.1 L64.1,192.9 L69.9,193.0 L79.1,193.1 L88.2,193.0 L95.1,193.0 L101.1,193.0 L110.4,193.0 L119.5,192.8 L126.4,192.8 L132.3,192.9 L141.2,193.0 L150.1,192.8 L156.9,192.8 L162.8,193.1 L172.3,192.8 L180.9,82.9 L187.5,193.1 L193.5,192.8 L203.8,193.1 L212.5,193.4 L218.7,193.0 L225.0,193.0 L234.9,193.1 L245.5,193.0 L257.8,193.0 L265.9,192.9 L275.2,193.0 L282.1,193.0 L287.9,193.2 L297.0,193.0 L306.2,193.2 L313.1,193.2 L319.4,193.4 L328.1,192.9 L337.7,192.3 L344.7,192.9 L350.6,193.1 L359.5,192.9 L368.9,193.0 L376.0,192.7 L381.7,192.9 L390.8,193.1 L399.6,192.8 L406.0,192.8 L412.2,192.9 L422.3,192.9 L431.5,193.0 L438.0,193.1 L443.7,193.2 L453.4,193.0 L464.8,193.2 L477.4,193.0 L485.2,192.8 L494.8,193.0 L507.2,193.2 L516.1,193.1 L525.6,193.0 L538.4,193.1 L547.5,193.1 L557.5,193.3 L570.1,192.8 L578.4,192.8 L587.9,193.0 L600.6,193.0 L609.2,192.9 L617.9,193.1 L623.9,193.2 L630.2,193.2 L641.0,192.7 L650.0,193.2 L661.7,192.7 L671.8,193.0 L683.8,192.7 L696.5,192.9 L704.0,193.1 L704.0,194.0 L48.0,194.0 Z" /><path class="line" d="M48.0,193.3 L57.4,193.1 L64.1,192.9 L69.9,193.0 L79.1,193.1 L88.2,193.0 L95.1,193.0 L101.1,193.0 L110.4,193.0 L119.5,192.8 L126.4,192.8 L132.3,192.9 L141.2,193.0 L150.1,192.8 L156.9,192.8 L162.8,193.1 L172.3,192.8 L180.9,82.9 L187.5,193.1 L193.5,192.8 L203.8,193.1 L212.5,193.4 L218.7,193.0 L225.0,193.0 L234.9,193.1 L245.5,193.0 L257.8,193.0 L265.9,192.9 L275.2,193.0 L282.1,193.0 L287.9,193.2 L297.0,193.0 L306.2,193.2 L313.1,193.2 L319.4,193.4 L328.1,192.9 L337.7,192.3 L344.7,192.9 L350.6,193.1 L359.5,192.9 L368.9,193.0 L376.0,192.7 L381.7,192.9 L390.8,193.1 L399.6,192.8 L406.0,192.8 L412.2,192.9 L422.3,192.9 L431.5,193.0 L438.0,193.1 L443.7,193.2 L453.4,193.0 L464.8,193.2 L477.4,193.0 L485.2,192.8 L494.8,193.0 L507.2,193.2 L516.1,193.1 L525.6,193.0 L538.4,193.1 L547.5,193.1 L557.5,193.3 L570.1,192.8 L578.4,192.8 L587.9,193.0 L600.6,193.0 L609.2,192.9 L617.9,193.1 L623.9,193.2 L630.2,193.2 L641.0,192.7 L650.0,193.2 L661.7,192.7 L671.8,193.0 L683.8,192.7 L696.5,192.9 L704.0,193.1" /><circle class="dot-down" cx="180.9" cy="82.9" r="3" /><text class="axis" x="48" y="212">09/15</text><text class="axis" x="704" y="212" text-anchor="end">10/06</text><text class="axis" x="42" y="20" text-anchor="end">ms</text>
</svg>
