<svg xmlns="http://www.w3.org/2000/svg" viewBox="0 0 720 220" width="720" height="220" role="img" aria-label="Response time over time">
<style>
  :root { color-scheme: light dark; }
  .bg { fill: #ffffff; }
  .grid { stroke: #e5e7eb; stroke-width: 1; }
  .axis { fill: #6b7280; font-size: 10px; }
  .title { fill: #111827; font-size: 13px; font-weight: 600; }
  .sub { fill: #6b7280; font-size: 10px; }
  .line { stroke: #6366f1; stroke-width: 2; fill: none; stroke-linejoin: round; stroke-linecap: round; }
  .area { fill: url(#fade); }
  .dot-degraded { fill: #f59e0b; }
  .dot-down { fill: #ef4444; }
  .empty { fill: #9ca3af; font-size: 12px; }
  @media (prefers-color-scheme: dark) {
    .bg { fill: #0b0f19; }
    .grid { stroke: #1f2937; }
    .axis, .sub { fill: #9ca3af; }
    .title { fill: #f3f4f6; }
    .line { stroke: #818cf8; }
  }
</style>
<defs>
  <linearGradient id="fade" x1="0" y1="0" x2="0" y2="1">
    <stop offset="0%" stop-color="#6366f1" stop-opacity="0.28" />
    <stop offset="100%" stop-color="#6366f1" stop-opacity="0" />
  </linearGradient>
</defs>
<rect class="bg" width="720" height="220" rx="8" />
<text class="title" x="48" y="18">KFC — response time</text><text class="sub" x="704" y="18" text-anchor="end">mean 1145 ms · peak 10001 ms · 157 samples</text><line class="grid" x1="48" y1="194.0" x2="704" y2="194.0" /><text class="axis" x="42" y="197" text-anchor="end">0</text><line class="grid" x1="48" y1="152.5" x2="704" y2="152.5" /><text class="axis" x="42" y="155.5" text-anchor="end">3750</text><line class="grid" x1="48" y1="111.0" x2="704" y2="111.0" /><text class="axis" x="42" y="114" text-anchor="end">7500</text><line class="grid" x1="48" y1="69.5" x2="704" y2="69.5" /><text class="axis" x="42" y="72.5" text-anchor="end">11250</text><line class="grid" x1="48" y1="28.0" x2="704" y2="28.0" /><text class="axis" x="42" y="31" text-anchor="end">15000</text><line class="grid" stroke-dasharray="4 4" x1="48" y1="166.3" x2="704" y2="166.3" /><path class="area" d="M48.0,190.3 L48.0,190.3 L51.0,190.3 L55.3,185.4 L63.1,184.8 L71.5,192.5 L79.4,185.0 L86.5,184.7 L91.7,187.4 L98.0,186.5 L100.6,185.6 L105.6,184.8 L109.9,184.6 L112.9,186.2 L115.6,144.1 L120.6,185.9 L125.8,188.9 L131.7,183.4 L135.3,184.4 L139.7,184.9 L142.7,189.1 L145.5,187.8 L149.9,188.7 L154.3,183.8 L157.7,188.4 L160.5,188.8 L164.8,188.7 L169.3,188.8 L172.5,188.6 L175.4,188.8 L179.8,189.2 L184.2,188.7 L187.4,188.8 L190.2,183.8 L194.7,189.1 L198.8,188.8 L201.6,189.0 L204.9,188.7 L209.7,188.8 L213.9,188.3 L216.8,188.6 L219.9,188.8 L224.6,188.8 L229.8,184.0 L235.6,189.3 L239.6,188.9 L244.0,188.6 L247.4,188.0 L250.2,188.6 L254.6,188.3 L259.0,188.9 L262.3,188.1 L265.1,188.7 L269.6,188.7 L273.9,187.2 L277.1,189.0 L280.0,188.9 L284.5,188.9 L288.9,188.7 L292.1,176.6 L295.0,188.4 L299.4,189.0 L303.5,189.0 L306.5,188.4 L309.7,188.9 L314.5,188.9 L319.1,188.3 L321.9,188.5 L324.7,188.8 L329.5,188.8 L334.6,179.4 L340.4,185.8 L344.5,189.7 L349.0,189.4 L352.2,189.8 L355.0,189.8 L359.4,189.1 L363.8,189.4 L367.1,189.3 L369.9,189.5 L374.4,189.5 L378.8,83.3 L382.1,83.3 L384.9,189.6 L389.2,189.5 L393.5,83.3 L396.7,83.3 L399.6,189.7 L404.1,189.6 L408.2,189.5 L411.4,186.2 L414.3,189.5 L419.2,189.8 L423.4,189.6 L426.4,189.1 L429.4,190.0 L434.2,174.9 L439.3,189.6 L445.1,189.6 L449.1,189.9 L453.5,188.8 L456.8,188.8 L459.6,189.8 L464.0,83.3 L468.4,83.3 L471.7,183.2 L474.7,189.7 L478.9,189.9 L483.5,189.5 L486.9,186.1 L489.7,189.6 L494.0,189.5 L498.5,188.2 L501.9,83.3 L504.6,189.6 L509.0,189.7 L513.2,189.8 L516.3,189.0 L519.3,189.5 L524.1,189.6 L528.5,189.5 L531.6,175.1 L534.4,166.3 L539.1,189.1 L544.5,188.5 L550.6,189.6 L554.3,189.3 L558.9,187.6 L564.9,175.9 L569.1,188.8 L573.7,83.3 L579.8,189.5 L584.2,189.7 L589.0,188.6 L595.0,189.3 L599.0,189.4 L603.6,83.3 L609.7,189.7 L613.8,189.3 L618.0,189.3 L620.9,189.5 L623.9,189.8 L629.1,189.5 L633.4,189.5 L639.0,189.5 L643.9,189.1 L649.6,188.8 L655.7,189.4 L659.3,189.1 L663.9,188.3 L669.8,187.8 L674.0,189.7 L678.8,188.8 L685.0,180.5 L689.0,189.1 L693.8,143.5 L700.1,189.3 L704.0,189.1 L704.0,194.0 L48.0,194.0 Z" /><path class="line" d="M48.0,190.3 L51.0,190.3 L55.3,185.4 L63.1,184.8 L71.5,192.5 L79.4,185.0 L86.5,184.7 L91.7,187.4 L98.0,186.5 L100.6,185.6 L105.6,184.8 L109.9,184.6 L112.9,186.2 L115.6,144.1 L120.6,185.9 L125.8,188.9 L131.7,183.4 L135.3,184.4 L139.7,184.9 L142.7,189.1 L145.5,187.8 L149.9,188.7 L154.3,183.8 L157.7,188.4 L160.5,188.8 L164.8,188.7 L169.3,188.8 L172.5,188.6 L175.4,188.8 L179.8,189.2 L184.2,188.7 L187.4,188.8 L190.2,183.8 L194.7,189.1 L198.8,188.8 L201.6,189.0 L204.9,188.7 L209.7,188.8 L213.9,188.3 L216.8,188.6 L219.9,188.8 L224.6,188.8 L229.8,184.0 L235.6,189.3 L239.6,188.9 L244.0,188.6 L247.4,188.0 L250.2,188.6 L254.6,188.3 L259.0,188.9 L262.3,188.1 L265.1,188.7 L269.6,188.7 L273.9,187.2 L277.1,189.0 L280.0,188.9 L284.5,188.9 L288.9,188.7 L292.1,176.6 L295.0,188.4 L299.4,189.0 L303.5,189.0 L306.5,188.4 L309.7,188.9 L314.5,188.9 L319.1,188.3 L321.9,188.5 L324.7,188.8 L329.5,188.8 L334.6,179.4 L340.4,185.8 L344.5,189.7 L349.0,189.4 L352.2,189.8 L355.0,189.8 L359.4,189.1 L363.8,189.4 L367.1,189.3 L369.9,189.5 L374.4,189.5 L378.8,83.3 L382.1,83.3 L384.9,189.6 L389.2,189.5 L393.5,83.3 L396.7,83.3 L399.6,189.7 L404.1,189.6 L408.2,189.5 L411.4,186.2 L414.3,189.5 L419.2,189.8 L423.4,189.6 L426.4,189.1 L429.4,190.0 L434.2,174.9 L439.3,189.6 L445.1,189.6 L449.1,189.9 L453.5,188.8 L456.8,188.8 L459.6,189.8 L464.0,83.3 L468.4,83.3 L471.7,183.2 L474.7,189.7 L478.9,189.9 L483.5,189.5 L486.9,186.1 L489.7,189.6 L494.0,189.5 L498.5,188.2 L501.9,83.3 L504.6,189.6 L509.0,189.7 L513.2,189.8 L516.3,189.0 L519.3,189.5 L524.1,189.6 L528.5,189.5 L531.6,175.1 L534.4,166.3 L539.1,189.1 L544.5,188.5 L550.6,189.6 L554.3,189.3 L558.9,187.6 L564.9,175.9 L569.1,188.8 L573.7,83.3 L579.8,189.5 L584.2,189.7 L589.0,188.6 L595.0,189.3 L599.0,189.4 L603.6,83.3 L609.7,189.7 L613.8,189.3 L618.0,189.3 L620.9,189.5 L623.9,189.8 L629.1,189.5 L633.4,189.5 L639.0,189.5 L643.9,189.1 L649.6,188.8 L655.7,189.4 L659.3,189.1 L663.9,188.3 L669.8,187.8 L674.0,189.7 L678.8,188.8 L685.0,180.5 L689.0,189.1 L693.8,143.5 L700.1,189.3 L704.0,189.1" /><circle class="dot-down" cx="48.0" cy="190.3" r="3" /><circle class="dot-down" cx="51.0" cy="190.3" r="3" /><circle class="dot-down" cx="55.3" cy="185.4" r="3" /><circle class="dot-down" cx="63.1" cy="184.8" r="3" /><circle class="dot-down" cx="71.5" cy="192.5" r="3" /><circle class="dot-down" cx="79.4" cy="185.0" r="3" /><circle class="dot-down" cx="86.5" cy="184.7" r="3" /><circle class="dot-down" cx="91.7" cy="187.4" r="3" /><circle class="dot-down" cx="98.0" cy="186.5" r="3" /><circle class="dot-down" cx="100.6" cy="185.6" r="3" /><circle class="dot-down" cx="105.6" cy="184.8" r="3" /><circle class="dot-down" cx="109.9" cy="184.6" r="3" /><circle class="dot-down" cx="112.9" cy="186.2" r="3" /><circle class="dot-down" cx="115.6" cy="144.1" r="3" /><circle class="dot-down" cx="120.6" cy="185.9" r="3" /><circle class="dot-down" cx="125.8" cy="188.9" r="3" /><circle class="dot-down" cx="131.7" cy="183.4" r="3" /><circle class="dot-down" cx="135.3" cy="184.4" r="3" /><circle class="dot-down" cx="139.7" cy="184.9" r="3" /><circle class="dot-down" cx="378.8" cy="83.3" r="3" /><circle class="dot-down" cx="382.1" cy="83.3" r="3" /><circle class="dot-down" cx="393.5" cy="83.3" r="3" /><circle class="dot-down" cx="396.7" cy="83.3" r="3" /><circle class="dot-degraded" cx="434.2" cy="174.9" r="3" /><circle class="dot-down" cx="464.0" cy="83.3" r="3" /><circle class="dot-down" cx="468.4" cy="83.3" r="3" /><circle class="dot-down" cx="501.9" cy="83.3" r="3" /><circle class="dot-degraded" cx="534.4" cy="166.3" r="3" /><circle class="dot-degraded" cx="564.9" cy="175.9" r="3" /><circle class="dot-down" cx="573.7" cy="83.3" r="3" /><circle class="dot-down" cx="603.6" cy="83.3" r="3" /><circle class="dot-degraded" cx="693.8" cy="143.5" r="3" /><text class="axis" x="48" y="212">08/26</text><text class="axis" x="704" y="212" text-anchor="end">10/09</text><text class="axis" x="42" y="20" text-anchor="end">ms</text>
</svg>
