<svg xmlns="http://www.w3.org/2000/svg" viewBox="0 0 720 220" width="720" height="220" role="img" aria-label="Response time over time">
<style>
  :root { color-scheme: light dark; }
  .bg { fill: #ffffff; }
  .grid { stroke: #e5e7eb; stroke-width: 1; }
  .axis { fill: #6b7280; font-size: 10px; }
  .title { fill: #111827; font-size: 13px; font-weight: 600; }
  .sub { fill: #6b7280; font-size: 10px; }
  .line { stroke: #6366f1; stroke-width: 2; fill: none; stroke-linejoin: round; stroke-linecap: round; }
  .area { fill: url(#fade); }
  .dot-degraded { fill: #f59e0b; }
  .dot-down { fill: #ef4444; }
  .empty { fill: #9ca3af; font-size: 12px; }
  @media (prefers-color-scheme: dark) {
    .bg { fill: #0b0f19; }
    .grid { stroke: #1f2937; }
    .axis, .sub { fill: #9ca3af; }
    .title { fill: #f3f4f6; }
    .line { stroke: #818cf8; }
  }
</style>
<defs>
  <linearGradient id="fade" x1="0" y1="0" x2="0" y2="1">
    <stop offset="0%" stop-color="#6366f1" stop-opacity="0.28" />
    <stop offset="100%" stop-color="#6366f1" stop-opacity="0" />
  </linearGradient>
</defs>
<rect class="bg" width="720" height="220" rx="8" />
<text class="title" x="48" y="18">KFC — response time</text><text class="sub" x="704" y="18" text-anchor="end">mean 1130 ms · peak 10001 ms · 119 samples</text><line class="grid" x1="48" y1="194.0" x2="704" y2="194.0" /><text class="axis" x="42" y="197" text-anchor="end">0</text><line class="grid" x1="48" y1="152.5" x2="704" y2="152.5" /><text class="axis" x="42" y="155.5" text-anchor="end">3750</text><line class="grid" x1="48" y1="111.0" x2="704" y2="111.0" /><text class="axis" x="42" y="114" text-anchor="end">7500</text><line class="grid" x1="48" y1="69.5" x2="704" y2="69.5" /><text class="axis" x="42" y="72.5" text-anchor="end">11250</text><line class="grid" x1="48" y1="28.0" x2="704" y2="28.0" /><text class="axis" x="42" y="31" text-anchor="end">15000</text><line class="grid" stroke-dasharray="4 4" x1="48" y1="166.3" x2="704" y2="166.3" /><path class="area" d="M48.0,190.3 L48.0,190.3 L52.1,190.3 L58.0,185.4 L68.8,184.8 L80.4,192.5 L91.3,185.0 L101.0,184.7 L108.3,187.4 L116.9,186.5 L120.5,185.6 L127.3,184.8 L133.3,184.6 L137.4,186.2 L141.2,144.1 L148.0,185.9 L155.2,188.9 L163.4,183.4 L168.3,184.4 L174.3,184.9 L178.5,189.1 L182.4,187.8 L188.4,188.7 L194.5,183.8 L199.1,188.4 L203.0,188.8 L208.9,188.7 L215.1,188.8 L219.6,188.6 L223.5,188.8 L229.6,189.2 L235.7,188.7 L240.1,188.8 L243.9,183.8 L250.1,189.1 L255.7,188.8 L259.7,189.0 L264.2,188.7 L270.8,188.8 L276.6,188.3 L280.6,188.6 L284.9,188.8 L291.4,188.8 L298.4,184.0 L306.4,189.3 L312.0,188.9 L318.1,188.6 L322.7,188.0 L326.7,188.6 L332.7,188.3 L338.7,188.9 L343.3,188.1 L347.1,188.7 L353.3,188.7 L359.3,187.2 L363.7,189.0 L367.6,188.9 L373.8,188.9 L379.9,188.7 L384.4,176.6 L388.3,188.4 L394.5,189.0 L400.0,189.0 L404.2,188.4 L408.6,188.9 L415.2,188.9 L421.5,188.3 L425.3,188.5 L429.3,188.8 L435.9,188.8 L442.8,179.4 L450.9,185.8 L456.5,189.7 L462.7,189.4 L467.2,189.8 L470.9,189.8 L477.0,189.1 L483.1,189.4 L487.7,189.3 L491.6,189.5 L497.7,189.5 L503.8,83.3 L508.3,83.3 L512.2,189.6 L518.1,189.5 L524.0,83.3 L528.5,83.3 L532.4,189.7 L538.7,189.6 L544.4,189.5 L548.7,186.2 L552.7,189.5 L559.5,189.8 L565.3,189.6 L569.4,189.1 L573.5,190.0 L580.1,174.9 L587.1,189.6 L595.2,189.6 L600.6,189.9 L606.7,188.8 L611.3,188.8 L615.2,189.8 L621.2,83.3 L627.2,83.3 L631.8,183.2 L636.0,189.7 L641.7,189.9 L648.1,189.5 L652.7,186.1 L656.6,189.6 L662.5,189.5 L668.7,188.2 L673.4,83.3 L677.2,189.6 L683.2,189.7 L689.0,189.8 L693.3,189.0 L697.4,189.5 L704.0,189.6 L704.0,194.0 L48.0,194.0 Z" /><path class="line" d="M48.0,190.3 L52.1,190.3 L58.0,185.4 L68.8,184.8 L80.4,192.5 L91.3,185.0 L101.0,184.7 L108.3,187.4 L116.9,186.5 L120.5,185.6 L127.3,184.8 L133.3,184.6 L137.4,186.2 L141.2,144.1 L148.0,185.9 L155.2,188.9 L163.4,183.4 L168.3,184.4 L174.3,184.9 L178.5,189.1 L182.4,187.8 L188.4,188.7 L194.5,183.8 L199.1,188.4 L203.0,188.8 L208.9,188.7 L215.1,188.8 L219.6,188.6 L223.5,188.8 L229.6,189.2 L235.7,188.7 L240.1,188.8 L243.9,183.8 L250.1,189.1 L255.7,188.8 L259.7,189.0 L264.2,188.7 L270.8,188.8 L276.6,188.3 L280.6,188.6 L284.9,188.8 L291.4,188.8 L298.4,184.0 L306.4,189.3 L312.0,188.9 L318.1,188.6 L322.7,188.0 L326.7,188.6 L332.7,188.3 L338.7,188.9 L343.3,188.1 L347.1,188.7 L353.3,188.7 L359.3,187.2 L363.7,189.0 L367.6,188.9 L373.8,188.9 L379.9,188.7 L384.4,176.6 L388.3,188.4 L394.5,189.0 L400.0,189.0 L404.2,188.4 L408.6,188.9 L415.2,188.9 L421.5,188.3 L425.3,188.5 L429.3,188.8 L435.9,188.8 L442.8,179.4 L450.9,185.8 L456.5,189.7 L462.7,189.4 L467.2,189.8 L470.9,189.8 L477.0,189.1 L483.1,189.4 L487.7,189.3 L491.6,189.5 L497.7,189.5 L503.8,83.3 L508.3,83.3 L512.2,189.6 L518.1,189.5 L524.0,83.3 L528.5,83.3 L532.4,189.7 L538.7,189.6 L544.4,189.5 L548.7,186.2 L552.7,189.5 L559.5,189.8 L565.3,189.6 L569.4,189.1 L573.5,190.0 L580.1,174.9 L587.1,189.6 L595.2,189.6 L600.6,189.9 L606.7,188.8 L611.3,188.8 L615.2,189.8 L621.2,83.3 L627.2,83.3 L631.8,183.2 L636.0,189.7 L641.7,189.9 L648.1,189.5 L652.7,186.1 L656.6,189.6 L662.5,189.5 L668.7,188.2 L673.4,83.3 L677.2,189.6 L683.2,189.7 L689.0,189.8 L693.3,189.0 L697.4,189.5 L704.0,189.6" /><circle class="dot-down" cx="48.0" cy="190.3" r="3" /><circle class="dot-down" cx="52.1" cy="190.3" r="3" /><circle class="dot-down" cx="58.0" cy="185.4" r="3" /><circle class="dot-down" cx="68.8" cy="184.8" r="3" /><circle class="dot-down" cx="80.4" cy="192.5" r="3" /><circle class="dot-down" cx="91.3" cy="185.0" r="3" /><circle class="dot-down" cx="101.0" cy="184.7" r="3" /><circle class="dot-down" cx="108.3" cy="187.4" r="3" /><circle class="dot-down" cx="116.9" cy="186.5" r="3" /><circle class="dot-down" cx="120.5" cy="185.6" r="3" /><circle class="dot-down" cx="127.3" cy="184.8" r="3" /><circle class="dot-down" cx="133.3" cy="184.6" r="3" /><circle class="dot-down" cx="137.4" cy="186.2" r="3" /><circle class="dot-down" cx="141.2" cy="144.1" r="3" /><circle class="dot-down" cx="148.0" cy="185.9" r="3" /><circle class="dot-down" cx="155.2" cy="188.9" r="3" /><circle class="dot-down" cx="163.4" cy="183.4" r="3" /><circle class="dot-down" cx="168.3" cy="184.4" r="3" /><circle class="dot-down" cx="174.3" cy="184.9" r="3" /><circle class="dot-down" cx="503.8" cy="83.3" r="3" /><circle class="dot-down" cx="508.3" cy="83.3" r="3" /><circle class="dot-down" cx="524.0" cy="83.3" r="3" /><circle class="dot-down" cx="528.5" cy="83.3" r="3" /><circle class="dot-degraded" cx="580.1" cy="174.9" r="3" /><circle class="dot-down" cx="621.2" cy="83.3" r="3" /><circle class="dot-down" cx="627.2" cy="83.3" r="3" /><circle class="dot-down" cx="673.4" cy="83.3" r="3" /><text class="axis" x="48" y="212">08/26</text><text class="axis" x="704" y="212" text-anchor="end">09/27</text><text class="axis" x="42" y="20" text-anchor="end">ms</text>
</svg>
