<svg xmlns="http://www.w3.org/2000/svg" viewBox="0 0 720 220" width="720" height="220" role="img" aria-label="Response time over time">
<style>
  :root { color-scheme: light dark; }
  .bg { fill: #ffffff; }
  .grid { stroke: #e5e7eb; stroke-width: 1; }
  .axis { fill: #6b7280; font-size: 10px; }
  .title { fill: #111827; font-size: 13px; font-weight: 600; }
  .sub { fill: #6b7280; font-size: 10px; }
  .line { stroke: #6366f1; stroke-width: 2; fill: none; stroke-linejoin: round; stroke-linecap: round; }
  .area { fill: url(#fade); }
  .dot-degraded { fill: #f59e0b; }
  .dot-down { fill: #ef4444; }
  .empty { fill: #9ca3af; font-size: 12px; }
  @media (prefers-color-scheme: dark) {
    .bg { fill: #0b0f19; }
    .grid { stroke: #1f2937; }
    .axis, .sub { fill: #9ca3af; }
    .title { fill: #f3f4f6; }
    .line { stroke: #818cf8; }
  }
</style>
<defs>
  <linearGradient id="fade" x1="0" y1="0" x2="0" y2="1">
    <stop offset="0%" stop-color="#6366f1" stop-opacity="0.28" />
    <stop offset="100%" stop-color="#6366f1" stop-opacity="0" />
  </linearGradient>
</defs>
<rect class="bg" width="720" height="220" rx="8" />
<text class="title" x="48" y="18">KFC — response time</text><text class="sub" x="704" y="18" text-anchor="end">mean 1154 ms · peak 10001 ms · 135 samples</text><line class="grid" x1="48" y1="194.0" x2="704" y2="194.0" /><text class="axis" x="42" y="197" text-anchor="end">0</text><line class="grid" x1="48" y1="152.5" x2="704" y2="152.5" /><text class="axis" x="42" y="155.5" text-anchor="end">3750</text><line class="grid" x1="48" y1="111.0" x2="704" y2="111.0" /><text class="axis" x="42" y="114" text-anchor="end">7500</text><line class="grid" x1="48" y1="69.5" x2="704" y2="69.5" /><text class="axis" x="42" y="72.5" text-anchor="end">11250</text><line class="grid" x1="48" y1="28.0" x2="704" y2="28.0" /><text class="axis" x="42" y="31" text-anchor="end">15000</text><line class="grid" stroke-dasharray="4 4" x1="48" y1="166.3" x2="704" y2="166.3" /><path class="area" d="M48.0,190.3 L48.0,190.3 L51.5,190.3 L56.6,185.4 L65.9,184.8 L76.0,192.5 L85.4,185.0 L93.8,184.7 L100.1,187.4 L107.5,186.5 L110.6,185.6 L116.5,184.8 L121.7,184.6 L125.2,186.2 L128.5,144.1 L134.4,185.9 L140.6,188.9 L147.7,183.4 L151.9,184.4 L157.1,184.9 L160.8,189.1 L164.1,187.8 L169.3,188.7 L174.6,183.8 L178.5,188.4 L181.9,188.8 L187.1,188.7 L192.4,188.8 L196.2,188.6 L199.7,188.8 L204.9,189.2 L210.2,188.7 L214.0,188.8 L217.3,183.8 L222.7,189.1 L227.5,188.8 L230.9,189.0 L234.8,188.7 L240.5,188.8 L245.5,188.3 L248.9,188.6 L252.6,188.8 L258.3,188.8 L264.4,184.0 L271.3,189.3 L276.1,188.9 L281.4,188.6 L285.4,188.0 L288.8,188.6 L294.0,188.3 L299.2,188.9 L303.1,188.1 L306.4,188.7 L311.8,188.7 L317.0,187.2 L320.8,189.0 L324.2,188.9 L329.5,188.9 L334.7,188.7 L338.6,176.6 L342.0,188.4 L347.3,189.0 L352.1,189.0 L355.8,188.4 L359.5,188.9 L365.2,188.9 L370.7,188.3 L374.0,188.5 L377.5,188.8 L383.1,188.8 L389.1,179.4 L396.1,185.8 L400.9,189.7 L406.3,189.4 L410.2,189.8 L413.4,189.8 L418.7,189.1 L423.9,189.4 L427.9,189.3 L431.3,189.5 L436.6,189.5 L441.8,83.3 L445.7,83.3 L449.1,189.6 L454.2,189.5 L459.3,83.3 L463.2,83.3 L466.5,189.7 L471.9,189.6 L476.9,189.5 L480.6,186.2 L484.1,189.5 L490.0,189.8 L495.0,189.6 L498.5,189.1 L502.1,190.0 L507.7,174.9 L513.8,189.6 L520.8,189.6 L525.5,189.9 L530.7,188.8 L534.7,188.8 L538.0,189.8 L543.2,83.3 L548.5,83.3 L552.4,183.2 L556.0,189.7 L561.0,189.9 L566.5,189.5 L570.5,186.1 L573.8,189.6 L578.9,189.5 L584.3,188.2 L588.3,83.3 L591.6,189.6 L596.8,189.7 L601.8,189.8 L605.5,189.0 L609.1,189.5 L614.8,189.6 L620.1,189.5 L623.8,175.1 L627.1,166.3 L632.6,189.1 L639.1,188.5 L646.3,189.6 L650.7,189.3 L656.2,187.6 L663.3,175.9 L668.4,188.8 L673.8,83.3 L681.1,189.5 L686.3,189.7 L692.0,188.6 L699.3,189.3 L704.0,189.4 L704.0,194.0 L48.0,194.0 Z" /><path class="line" d="M48.0,190.3 L51.5,190.3 L56.6,185.4 L65.9,184.8 L76.0,192.5 L85.4,185.0 L93.8,184.7 L100.1,187.4 L107.5,186.5 L110.6,185.6 L116.5,184.8 L121.7,184.6 L125.2,186.2 L128.5,144.1 L134.4,185.9 L140.6,188.9 L147.7,183.4 L151.9,184.4 L157.1,184.9 L160.8,189.1 L164.1,187.8 L169.3,188.7 L174.6,183.8 L178.5,188.4 L181.9,188.8 L187.1,188.7 L192.4,188.8 L196.2,188.6 L199.7,188.8 L204.9,189.2 L210.2,188.7 L214.0,188.8 L217.3,183.8 L222.7,189.1 L227.5,188.8 L230.9,189.0 L234.8,188.7 L240.5,188.8 L245.5,188.3 L248.9,188.6 L252.6,188.8 L258.3,188.8 L264.4,184.0 L271.3,189.3 L276.1,188.9 L281.4,188.6 L285.4,188.0 L288.8,188.6 L294.0,188.3 L299.2,188.9 L303.1,188.1 L306.4,188.7 L311.8,188.7 L317.0,187.2 L320.8,189.0 L324.2,188.9 L329.5,188.9 L334.7,188.7 L338.6,176.6 L342.0,188.4 L347.3,189.0 L352.1,189.0 L355.8,188.4 L359.5,188.9 L365.2,188.9 L370.7,188.3 L374.0,188.5 L377.5,188.8 L383.1,188.8 L389.1,179.4 L396.1,185.8 L400.9,189.7 L406.3,189.4 L410.2,189.8 L413.4,189.8 L418.7,189.1 L423.9,189.4 L427.9,189.3 L431.3,189.5 L436.6,189.5 L441.8,83.3 L445.7,83.3 L449.1,189.6 L454.2,189.5 L459.3,83.3 L463.2,83.3 L466.5,189.7 L471.9,189.6 L476.9,189.5 L480.6,186.2 L484.1,189.5 L490.0,189.8 L495.0,189.6 L498.5,189.1 L502.1,190.0 L507.7,174.9 L513.8,189.6 L520.8,189.6 L525.5,189.9 L530.7,188.8 L534.7,188.8 L538.0,189.8 L543.2,83.3 L548.5,83.3 L552.4,183.2 L556.0,189.7 L561.0,189.9 L566.5,189.5 L570.5,186.1 L573.8,189.6 L578.9,189.5 L584.3,188.2 L588.3,83.3 L591.6,189.6 L596.8,189.7 L601.8,189.8 L605.5,189.0 L609.1,189.5 L614.8,189.6 L620.1,189.5 L623.8,175.1 L627.1,166.3 L632.6,189.1 L639.1,188.5 L646.3,189.6 L650.7,189.3 L656.2,187.6 L663.3,175.9 L668.4,188.8 L673.8,83.3 L681.1,189.5 L686.3,189.7 L692.0,188.6 L699.3,189.3 L704.0,189.4" /><circle class="dot-down" cx="48.0" cy="190.3" r="3" /><circle class="dot-down" cx="51.5" cy="190.3" r="3" /><circle class="dot-down" cx="56.6" cy="185.4" r="3" /><circle class="dot-down" cx="65.9" cy="184.8" r="3" /><circle class="dot-down" cx="76.0" cy="192.5" r="3" /><circle class="dot-down" cx="85.4" cy="185.0" r="3" /><circle class="dot-down" cx="93.8" cy="184.7" r="3" /><circle class="dot-down" cx="100.1" cy="187.4" r="3" /><circle class="dot-down" cx="107.5" cy="186.5" r="3" /><circle class="dot-down" cx="110.6" cy="185.6" r="3" /><circle class="dot-down" cx="116.5" cy="184.8" r="3" /><circle class="dot-down" cx="121.7" cy="184.6" r="3" /><circle class="dot-down" cx="125.2" cy="186.2" r="3" /><circle class="dot-down" cx="128.5" cy="144.1" r="3" /><circle class="dot-down" cx="134.4" cy="185.9" r="3" /><circle class="dot-down" cx="140.6" cy="188.9" r="3" /><circle class="dot-down" cx="147.7" cy="183.4" r="3" /><circle class="dot-down" cx="151.9" cy="184.4" r="3" /><circle class="dot-down" cx="157.1" cy="184.9" r="3" /><circle class="dot-down" cx="441.8" cy="83.3" r="3" /><circle class="dot-down" cx="445.7" cy="83.3" r="3" /><circle class="dot-down" cx="459.3" cy="83.3" r="3" /><circle class="dot-down" cx="463.2" cy="83.3" r="3" /><circle class="dot-degraded" cx="507.7" cy="174.9" r="3" /><circle class="dot-down" cx="543.2" cy="83.3" r="3" /><circle class="dot-down" cx="548.5" cy="83.3" r="3" /><circle class="dot-down" cx="588.3" cy="83.3" r="3" /><circle class="dot-degraded" cx="627.1" cy="166.3" r="3" /><circle class="dot-degraded" cx="663.3" cy="175.9" r="3" /><circle class="dot-down" cx="673.8" cy="83.3" r="3" /><text class="axis" x="48" y="212">08/26</text><text class="axis" x="704" y="212" text-anchor="end">10/02</text><text class="axis" x="42" y="20" text-anchor="end">ms</text>
</svg>
