<svg xmlns="http://www.w3.org/2000/svg" viewBox="0 0 720 220" width="720" height="220" role="img" aria-label="Response time over time">
<style>
  :root { color-scheme: light dark; }
  .bg { fill: #ffffff; }
  .grid { stroke: #e5e7eb; stroke-width: 1; }
  .axis { fill: #6b7280; font-size: 10px; }
  .title { fill: #111827; font-size: 13px; font-weight: 600; }
  .sub { fill: #6b7280; font-size: 10px; }
  .line { stroke: #6366f1; stroke-width: 2; fill: none; stroke-linejoin: round; stroke-linecap: round; }
  .area { fill: url(#fade); }
  .dot-degraded { fill: #f59e0b; }
  .dot-down { fill: #ef4444; }
  .empty { fill: #9ca3af; font-size: 12px; }
  @media (prefers-color-scheme: dark) {
    .bg { fill: #0b0f19; }
    .grid { stroke: #1f2937; }
    .axis, .sub { fill: #9ca3af; }
    .title { fill: #f3f4f6; }
    .line { stroke: #818cf8; }
  }
</style>
<defs>
  <linearGradient id="fade" x1="0" y1="0" x2="0" y2="1">
    <stop offset="0%" stop-color="#6366f1" stop-opacity="0.28" />
    <stop offset="100%" stop-color="#6366f1" stop-opacity="0" />
  </linearGradient>
</defs>
<rect class="bg" width="720" height="220" rx="8" />
<text class="title" x="48" y="18">Kichaka — response time</text><text class="sub" x="704" y="18" text-anchor="end">mean 160 ms · peak 2136 ms · 111 samples</text><line class="grid" x1="48" y1="194.0" x2="704" y2="194.0" /><text class="axis" x="42" y="197" text-anchor="end">0</text><line class="grid" x1="48" y1="152.5" x2="704" y2="152.5" /><text class="axis" x="42" y="155.5" text-anchor="end">750</text><line class="grid" x1="48" y1="111.0" x2="704" y2="111.0" /><text class="axis" x="42" y="114" text-anchor="end">1500</text><line class="grid" x1="48" y1="69.5" x2="704" y2="69.5" /><text class="axis" x="42" y="72.5" text-anchor="end">2250</text><line class="grid" x1="48" y1="28.0" x2="704" y2="28.0" /><text class="axis" x="42" y="31" text-anchor="end">3000</text><line class="grid" stroke-dasharray="4 4" x1="48" y1="55.7" x2="704" y2="55.7" /><path class="area" d="M48.0,75.8 L48.0,75.8 L52.4,168.7 L58.7,186.7 L70.2,185.5 L82.6,187.9 L94.2,186.3 L104.6,185.5 L112.3,188.4 L121.5,187.6 L125.4,183.2 L132.7,185.5 L139.0,184.8 L143.4,188.0 L147.5,186.4 L154.7,185.4 L162.5,184.8 L171.2,187.4 L176.4,186.7 L182.8,186.1 L187.3,187.4 L191.5,185.0 L197.8,185.5 L204.4,185.5 L209.3,184.3 L213.4,187.9 L219.8,185.1 L226.4,185.4 L231.1,185.2 L235.4,183.8 L241.8,187.9 L248.4,186.0 L253.0,185.0 L257.2,186.8 L263.8,186.8 L269.8,185.8 L274.0,187.5 L278.8,187.0 L285.8,186.3 L292.1,185.9 L296.3,186.6 L300.9,186.7 L307.8,185.6 L315.3,185.4 L323.9,188.2 L329.9,186.6 L336.3,186.6 L341.3,188.0 L345.5,186.7 L351.9,185.5 L358.4,187.7 L363.2,186.3 L367.3,186.6 L373.9,186.0 L380.3,184.8 L385.0,188.5 L389.2,187.5 L395.8,186.6 L402.3,186.5 L407.1,187.1 L411.3,184.6 L417.9,187.6 L423.8,187.3 L428.3,184.8 L432.9,187.2 L440.0,185.5 L446.7,186.4 L450.8,185.7 L455.1,187.6 L462.1,186.3 L469.5,188.6 L478.1,186.5 L484.1,187.1 L490.7,187.2 L495.5,188.3 L499.5,187.9 L506.0,186.8 L512.5,186.8 L517.3,186.4 L521.5,188.2 L528.1,187.6 L534.6,184.9 L539.4,185.0 L543.6,186.2 L549.8,184.6 L556.2,187.0 L561.0,185.1 L565.1,187.0 L571.8,185.5 L577.9,183.2 L582.5,185.8 L586.8,186.4 L594.1,183.5 L600.2,186.3 L604.6,185.8 L609.0,188.2 L616.0,187.1 L623.5,187.7 L632.2,186.5 L637.9,188.1 L644.5,187.5 L649.4,185.4 L653.4,186.0 L659.9,186.0 L666.3,185.1 L671.2,184.8 L675.7,186.0 L681.8,187.9 L688.6,181.9 L693.5,187.7 L697.7,186.3 L704.0,185.9 L704.0,194.0 L48.0,194.0 Z" /><path class="line" d="M48.0,75.8 L52.4,168.7 L58.7,186.7 L70.2,185.5 L82.6,187.9 L94.2,186.3 L104.6,185.5 L112.3,188.4 L121.5,187.6 L125.4,183.2 L132.7,185.5 L139.0,184.8 L143.4,188.0 L147.5,186.4 L154.7,185.4 L162.5,184.8 L171.2,187.4 L176.4,186.7 L182.8,186.1 L187.3,187.4 L191.5,185.0 L197.8,185.5 L204.4,185.5 L209.3,184.3 L213.4,187.9 L219.8,185.1 L226.4,185.4 L231.1,185.2 L235.4,183.8 L241.8,187.9 L248.4,186.0 L253.0,185.0 L257.2,186.8 L263.8,186.8 L269.8,185.8 L274.0,187.5 L278.8,187.0 L285.8,186.3 L292.1,185.9 L296.3,186.6 L300.9,186.7 L307.8,185.6 L315.3,185.4 L323.9,188.2 L329.9,186.6 L336.3,186.6 L341.3,188.0 L345.5,186.7 L351.9,185.5 L358.4,187.7 L363.2,186.3 L367.3,186.6 L373.9,186.0 L380.3,184.8 L385.0,188.5 L389.2,187.5 L395.8,186.6 L402.3,186.5 L407.1,187.1 L411.3,184.6 L417.9,187.6 L423.8,187.3 L428.3,184.8 L432.9,187.2 L440.0,185.5 L446.7,186.4 L450.8,185.7 L455.1,187.6 L462.1,186.3 L469.5,188.6 L478.1,186.5 L484.1,187.1 L490.7,187.2 L495.5,188.3 L499.5,187.9 L506.0,186.8 L512.5,186.8 L517.3,186.4 L521.5,188.2 L528.1,187.6 L534.6,184.9 L539.4,185.0 L543.6,186.2 L549.8,184.6 L556.2,187.0 L561.0,185.1 L565.1,187.0 L571.8,185.5 L577.9,183.2 L582.5,185.8 L586.8,186.4 L594.1,183.5 L600.2,186.3 L604.6,185.8 L609.0,188.2 L616.0,187.1 L623.5,187.7 L632.2,186.5 L637.9,188.1 L644.5,187.5 L649.4,185.4 L653.4,186.0 L659.9,186.0 L666.3,185.1 L671.2,184.8 L675.7,186.0 L681.8,187.9 L688.6,181.9 L693.5,187.7 L697.7,186.3 L704.0,185.9" /><text class="axis" x="48" y="212">08/26</text><text class="axis" x="704" y="212" text-anchor="end">09/25</text><text class="axis" x="42" y="20" text-anchor="end">ms</text>
</svg>
