<svg xmlns="http://www.w3.org/2000/svg" viewBox="0 0 720 220" width="720" height="220" role="img" aria-label="Response time over time">
<style>
  :root { color-scheme: light dark; }
  .bg { fill: #ffffff; }
  .grid { stroke: #e5e7eb; stroke-width: 1; }
  .axis { fill: #6b7280; font-size: 10px; }
  .title { fill: #111827; font-size: 13px; font-weight: 600; }
  .sub { fill: #6b7280; font-size: 10px; }
  .line { stroke: #6366f1; stroke-width: 2; fill: none; stroke-linejoin: round; stroke-linecap: round; }
  .area { fill: url(#fade); }
  .dot-degraded { fill: #f59e0b; }
  .dot-down { fill: #ef4444; }
  .empty { fill: #9ca3af; font-size: 12px; }
  @media (prefers-color-scheme: dark) {
    .bg { fill: #0b0f19; }
    .grid { stroke: #1f2937; }
    .axis, .sub { fill: #9ca3af; }
    .title { fill: #f3f4f6; }
    .line { stroke: #818cf8; }
  }
</style>
<defs>
  <linearGradient id="fade" x1="0" y1="0" x2="0" y2="1">
    <stop offset="0%" stop-color="#6366f1" stop-opacity="0.28" />
    <stop offset="100%" stop-color="#6366f1" stop-opacity="0" />
  </linearGradient>
</defs>
<rect class="bg" width="720" height="220" rx="8" />
<text class="title" x="48" y="18">KIMAP — response time</text><text class="sub" x="704" y="18" text-anchor="end">mean 225 ms · peak 2303 ms · 34 samples</text><line class="grid" x1="48" y1="194.0" x2="704" y2="194.0" /><text class="axis" x="42" y="197" text-anchor="end">0</text><line class="grid" x1="48" y1="152.5" x2="704" y2="152.5" /><text class="axis" x="42" y="155.5" text-anchor="end">750</text><line class="grid" x1="48" y1="111.0" x2="704" y2="111.0" /><text class="axis" x="42" y="114" text-anchor="end">1500</text><line class="grid" x1="48" y1="69.5" x2="704" y2="69.5" /><text class="axis" x="42" y="72.5" text-anchor="end">2250</text><line class="grid" x1="48" y1="28.0" x2="704" y2="28.0" /><text class="axis" x="42" y="31" text-anchor="end">3000</text><line class="grid" stroke-dasharray="4 4" x1="48" y1="55.7" x2="704" y2="55.7" /><path class="area" d="M48.0,66.6 L48.0,66.6 L61.3,163.1 L80.4,184.5 L115.4,188.0 L153.3,185.9 L188.5,186.5 L220.0,186.9 L243.6,184.6 L271.5,185.2 L283.3,186.0 L305.4,186.1 L324.7,187.8 L338.1,182.7 L350.4,185.1 L372.4,185.6 L396.0,185.1 L422.4,185.3 L438.4,188.2 L457.8,183.5 L471.6,186.6 L484.1,185.9 L503.5,186.6 L523.5,186.3 L538.3,186.5 L550.9,183.9 L570.3,186.0 L590.3,185.0 L604.7,186.8 L617.6,184.0 L637.2,185.4 L657.1,186.6 L671.3,186.8 L683.9,184.3 L704.0,186.0 L704.0,194.0 L48.0,194.0 Z" /><path class="line" d="M48.0,66.6 L61.3,163.1 L80.4,184.5 L115.4,188.0 L153.3,185.9 L188.5,186.5 L220.0,186.9 L243.6,184.6 L271.5,185.2 L283.3,186.0 L305.4,186.1 L324.7,187.8 L338.1,182.7 L350.4,185.1 L372.4,185.6 L396.0,185.1 L422.4,185.3 L438.4,188.2 L457.8,183.5 L471.6,186.6 L484.1,185.9 L503.5,186.6 L523.5,186.3 L538.3,186.5 L550.9,183.9 L570.3,186.0 L590.3,185.0 L604.7,186.8 L617.6,184.0 L637.2,185.4 L657.1,186.6 L671.3,186.8 L683.9,184.3 L704.0,186.0" /><text class="axis" x="48" y="212">08/26</text><text class="axis" x="704" y="212" text-anchor="end">09/05</text><text class="axis" x="42" y="20" text-anchor="end">ms</text>
</svg>
